<mxfile host="app.diagrams.net" agent="Mozilla/5.0 (Windows NT 10.0; Win64; x64) AppleWebKit/537.36 (KHTML, like Gecko) Chrome/109.0.0.0 Safari/537.36" version="24.7.17">
  <diagram name="Страница — 1" id="UcCIhrL4SCzz4e9E6vIN">
    <mxGraphModel dx="1434" dy="764" grid="1" gridSize="10" guides="1" tooltips="1" connect="1" arrows="1" fold="1" page="1" pageScale="1" pageWidth="827" pageHeight="1169" math="0" shadow="0">
      <root>
        <mxCell id="0" />
        <mxCell id="1" parent="0" />
        <mxCell id="c_S7j9KLN7SXU3ALzy-A-2" value="Frontend &lt;br&gt;Nextjs" style="rounded=1;whiteSpace=wrap;html=1;" vertex="1" parent="1">
          <mxGeometry x="80" y="120" width="200" height="130" as="geometry" />
        </mxCell>
        <mxCell id="c_S7j9KLN7SXU3ALzy-A-23" value="" style="edgeStyle=orthogonalEdgeStyle;rounded=0;orthogonalLoop=1;jettySize=auto;html=1;" edge="1" parent="1" source="c_S7j9KLN7SXU3ALzy-A-3" target="c_S7j9KLN7SXU3ALzy-A-21">
          <mxGeometry relative="1" as="geometry" />
        </mxCell>
        <mxCell id="c_S7j9KLN7SXU3ALzy-A-3" value="Backend &lt;br&gt;Java Fremework" style="rounded=1;whiteSpace=wrap;html=1;" vertex="1" parent="1">
          <mxGeometry x="400" y="125" width="200" height="120" as="geometry" />
        </mxCell>
        <mxCell id="c_S7j9KLN7SXU3ALzy-A-11" style="edgeStyle=orthogonalEdgeStyle;rounded=0;orthogonalLoop=1;jettySize=auto;html=1;exitX=1;exitY=0.5;exitDx=0;exitDy=0;entryX=0;entryY=0.5;entryDx=0;entryDy=0;" edge="1" parent="1" source="c_S7j9KLN7SXU3ALzy-A-6" target="c_S7j9KLN7SXU3ALzy-A-3">
          <mxGeometry relative="1" as="geometry" />
        </mxCell>
        <mxCell id="c_S7j9KLN7SXU3ALzy-A-12" style="edgeStyle=orthogonalEdgeStyle;rounded=0;orthogonalLoop=1;jettySize=auto;html=1;exitX=0;exitY=0.5;exitDx=0;exitDy=0;entryX=1;entryY=0.5;entryDx=0;entryDy=0;" edge="1" parent="1" source="c_S7j9KLN7SXU3ALzy-A-6" target="c_S7j9KLN7SXU3ALzy-A-2">
          <mxGeometry relative="1" as="geometry" />
        </mxCell>
        <mxCell id="c_S7j9KLN7SXU3ALzy-A-6" value="Rest api" style="whiteSpace=wrap;html=1;" vertex="1" parent="1">
          <mxGeometry x="300" y="165" width="80" height="40" as="geometry" />
        </mxCell>
        <mxCell id="c_S7j9KLN7SXU3ALzy-A-14" value="JWT strategy&lt;br&gt;accses_token&lt;br&gt;refresh_token" style="rounded=0;whiteSpace=wrap;html=1;" vertex="1" parent="1">
          <mxGeometry x="270" y="40" width="140" height="60" as="geometry" />
        </mxCell>
        <mxCell id="c_S7j9KLN7SXU3ALzy-A-15" value="" style="endArrow=classic;startArrow=classic;html=1;rounded=0;exitX=1;exitY=0.5;exitDx=0;exitDy=0;" edge="1" parent="1" source="c_S7j9KLN7SXU3ALzy-A-14">
          <mxGeometry width="50" height="50" relative="1" as="geometry">
            <mxPoint x="390" y="75" as="sourcePoint" />
            <mxPoint x="480" y="125" as="targetPoint" />
          </mxGeometry>
        </mxCell>
        <mxCell id="c_S7j9KLN7SXU3ALzy-A-17" value="" style="endArrow=classic;startArrow=classic;html=1;rounded=0;" edge="1" parent="1">
          <mxGeometry width="50" height="50" relative="1" as="geometry">
            <mxPoint x="220" y="120" as="sourcePoint" />
            <mxPoint x="270" y="70" as="targetPoint" />
          </mxGeometry>
        </mxCell>
        <mxCell id="c_S7j9KLN7SXU3ALzy-A-18" value="Bearer {token}&lt;br&gt;All requests" style="rounded=0;whiteSpace=wrap;html=1;" vertex="1" parent="1">
          <mxGeometry x="260" y="280" width="160" height="60" as="geometry" />
        </mxCell>
        <mxCell id="c_S7j9KLN7SXU3ALzy-A-19" value="" style="endArrow=none;html=1;rounded=0;" edge="1" parent="1">
          <mxGeometry width="50" height="50" relative="1" as="geometry">
            <mxPoint x="420" y="295" as="sourcePoint" />
            <mxPoint x="470" y="245" as="targetPoint" />
          </mxGeometry>
        </mxCell>
        <mxCell id="c_S7j9KLN7SXU3ALzy-A-20" value="" style="endArrow=none;html=1;rounded=0;exitX=0;exitY=0.5;exitDx=0;exitDy=0;" edge="1" parent="1" source="c_S7j9KLN7SXU3ALzy-A-18">
          <mxGeometry width="50" height="50" relative="1" as="geometry">
            <mxPoint x="155" y="300" as="sourcePoint" />
            <mxPoint x="205" y="250" as="targetPoint" />
          </mxGeometry>
        </mxCell>
        <mxCell id="c_S7j9KLN7SXU3ALzy-A-21" value="postgresql" style="shape=cylinder3;whiteSpace=wrap;html=1;boundedLbl=1;backgroundOutline=1;size=15;" vertex="1" parent="1">
          <mxGeometry x="640" y="85" width="90" height="80" as="geometry" />
        </mxCell>
      </root>
    </mxGraphModel>
  </diagram>
</mxfile>
